<svg xmlns="http://www.w3.org/2000/svg" style="display: none;">
  <!-- action-symbol -->
  <symbol viewBox="0 0 24 24" id="ic_delete_24px"><path d="M6 19c0 1.1.9 2 2 2h8c1.1 0 2-.9 2-2V7H6v12zM19 4h-3.5l-1-1h-5l-1 1H5v2h14V4z"/></symbol>
  <symbol viewBox="0 0 24 24" id="ic_remove_circle_outline_24px"><path d="M7 11v2h10v-2H7zm5-9C6.48 2 2 6.48 2 12s4.48 10 10 10 10-4.48 10-10S17.52 2 12 2zm0 18c-4.41 0-8-3.59-8-8s3.59-8 8-8 8 3.59 8 8-3.59 8-8 8z"/></symbol>
  <symbol viewBox="0 0 24 24" id="ic_home_24px"><path d="M10 20v-6h4v6h5v-8h3L12 3 2 12h3v8z"/></symbol>
  <symbol viewBox="0 0 24 24" id="ic_check_circle_24px"><path fill="none" d="M0 0h24v24H0V0z"/><path d="M12 2C6.48 2 2 6.48 2 12s4.48 10 10 10 10-4.48 10-10S17.52 2 12 2zm-2 15l-5-5 1.41-1.41L10 14.17l7.59-7.59L19 8l-9 9z"/></symbol>
  <symbol viewBox="0 0 24 24" id="ic_launch_24px"><path d="M19 19H5V5h7V3H5a2 2 0 0 0-2 2v14a2 2 0 0 0 2 2h14c1.1 0 2-.9 2-2v-7h-2v7zM14 3v2h3.59l-9.83 9.83 1.41 1.41L19 6.41V10h2V3h-7z"/></symbol>
  <symbol viewBox="0 0 24 24" id="ic_help_outline_24px"><path d="M11 18h2v-2h-2v2zm1-16C6.48 2 2 6.48 2 12s4.48 10 10 10 10-4.48 10-10S17.52 2 12 2zm0 18c-4.41 0-8-3.59-8-8s3.59-8 8-8 8 3.59 8 8-3.59 8-8 8zm0-14a4 4 0 0 0-4 4h2c0-1.1.9-2 2-2s2 .9 2 2c0 2-3 1.75-3 5h2c0-2.25 3-2.5 3-5a4 4 0 0 0-4-4z"/></symbol>
  <symbol viewBox="0 0 24 24" id="ic_screen_share_outline_24px"> <path fill="none" d="M0 0h24v24H0V0z"/><path d="M20 18c1.1 0 1.99-.9 1.99-2L22 6c0-1.11-.9-2-2-2H4c-1.11 0-2 .89-2 2v10c0 1.1.89 2 2 2H0v2h24v-2h-4zM4 16V6h16v10.01L4 16zm9-6.87c-3.89.54-5.44 3.2-6 5.87 1.39-1.87 3.22-2.72 6-2.72v2.19l4-3.74L13 7v2.13z"/></symbol>
  <symbol viewBox="0 0 24 24" id="ic_gps_not_fixed_24px"> <path fill="none" d="M0 0h24v24H0V0z"/><path d="M20.94 11c-.46-4.17-3.77-7.48-7.94-7.94V1h-2v2.06C6.83 3.52 3.52 6.83 3.06 11H1v2h2.06c.46 4.17 3.77 7.48 7.94 7.94V23h2v-2.06c4.17-.46 7.48-3.77 7.94-7.94H23v-2h-2.06zM12 19c-3.87 0-7-3.13-7-7s3.13-7 7-7 7 3.13 7 7-3.13 7-7 7z"/></symbol>
  <symbol viewBox="0 0 24 24" id="ic_print_24px"><path d="M19 8H5c-1.66 0-3 1.34-3 3v6h4v4h12v-4h4v-6c0-1.66-1.34-3-3-3zm-3 11H8v-5h8v5zm3-7c-.55 0-1-.45-1-1s.45-1 1-1 1 .45 1 1-.45 1-1 1zm-1-9H6v4h12V3z"/></symbol>
  <symbol viewBox="0 0 24 24" id="ic_search_24px"><path d="M15.5 14h-.79l-.28-.27C15.41 12.59 16 11.11 16 9.5 16 5.91 13.09 3 9.5 3S3 5.91 3 9.5 5.91 16 9.5 16c1.61 0 3.09-.59 4.23-1.57l.27.28v.79l5 4.99L20.49 19l-4.99-5zm-6 0C7.01 14 5 11.99 5 9.5S7.01 5 9.5 5 14 7.01 14 9.5 11.99 14 9.5 14z"/></symbol>
  <symbol viewBox="0 0 24 24" id="ic_visibility_off_24px"><path d="M12 7c2.76 0 5 2.24 5 5 0 .65-.13 1.26-.36 1.83l2.92 2.92c1.51-1.26 2.7-2.89 3.43-4.75-1.73-4.39-6-7.5-11-7.5-1.4 0-2.74.25-3.98.7l2.16 2.16C10.74 7.13 11.35 7 12 7zM2 4.27l2.28 2.28.46.46A11.804 11.804 0 0 0 1 12c1.73 4.39 6 7.5 11 7.5 1.55 0 3.03-.3 4.38-.84l.42.42L19.73 22 21 20.73 3.27 3 2 4.27zM7.53 9.8l1.55 1.55c-.05.21-.08.43-.08.65 0 1.66 1.34 3 3 3 .22 0 .44-.03.65-.08l1.55 1.55c-.67.33-1.41.53-2.2.53-2.76 0-5-2.24-5-5 0-.79.2-1.53.53-2.2zm4.31-.78l3.15 3.15.02-.16c0-1.66-1.34-3-3-3l-.17.01z"/></symbol>
  <symbol viewBox="0 0 24 24" id="ic_timeline_24px"><path d="M23 8c0 1.1-.9 2-2 2a1.7 1.7 0 0 1-.51-.07l-3.56 3.55c.05.16.07.34.07.52 0 1.1-.9 2-2 2s-2-.9-2-2c0-.18.02-.36.07-.52l-2.55-2.55c-.16.05-.34.07-.52.07s-.36-.02-.52-.07l-4.55 4.56c.05.16.07.33.07.51 0 1.1-.9 2-2 2s-2-.9-2-2 .9-2 2-2c.18 0 .35.02.51.07l4.56-4.55C8.02 9.36 8 9.18 8 9c0-1.1.9-2 2-2s2 .9 2 2c0 .18-.02.36-.07.52l2.55 2.55c.16-.05.34-.07.52-.07s.36.02.52.07l3.55-3.56A1.7 1.7 0 0 1 19 8c0-1.1.9-2 2-2s2 .9 2 2z"/></symbol>
  <!-- editor-symbol -->
  <symbol viewBox="0 0 24 24" id="ic_height_24px"><path d="M13 6.99h3L12 3L8 6.99h3v10.02H8L12 21l4-3.99h-3z"/></symbol>
  <symbol viewBox="0 0 24 24" id="ic_title_24px"><path d="M5 4v3h5.5v12h3V7H19V4z"/></symbol>
  <symbol viewBox="0 0 24 24" id="ic_mode_edit_24px"><path d="M3 17.25V21h3.75L17.81 9.94l-3.75-3.75L3 17.25zM20.71 7.04a.996.996 0 0 0 0-1.41l-2.34-2.34a.996.996 0 0 0-1.41 0l-1.83 1.83 3.75 3.75 1.83-1.83z"/></symbol>
  <!-- maps-symbol -->
  <symbol viewBox="0 0 24 24" id="ic_layers_24px"><path d="M11.99 18.54l-7.37-5.73L3 14.07l9 7 9-7-1.63-1.27-7.38 5.74zM12 16l7.36-5.73L21 9l-9-7-9 7 1.63 1.27L12 16z"/></symbol>
  <symbol viewBox="0 0 24 24" id="ic_near_me_24px"><path d="M21 3L3 10.53v.98l6.84 2.65L12.48 21h.98L21 3z"/></symbol>
  <symbol viewBox="0 0 24 24" id="ic_place_24px"><path d="M12 2C8.13 2 5 5.13 5 9c0 5.25 7 13 7 13s7-7.75 7-13c0-3.87-3.13-7-7-7zm0 9.5a2.5 2.5 0 0 1 0-5 2.5 2.5 0 0 1 0 5z"/></symbol>
  <!-- navigation-symbol -->
  <symbol viewBox="0 0 24 24" id="ic_arrow_drop_down_24px"><path d="M7 10l5 5 5-5z"/></symbol>
  <symbol viewBox="0 0 24 24" id="ic_arrow_drop_up_24px"><path d="M7 14l5-5 5 5z"/></symbol>
  <symbol viewBox="0 0 24 24" id="ic_menu_24px"><path d="M3 18h18v-2H3v2zm0-5h18v-2H3v2zm0-7v2h18V6H3z"/></symbol>
  <symbol viewBox="0 0 24 24" id="ic_close_24px"><path d="M19 6.41L17.59 5 12 10.59 6.41 5 5 6.41 10.59 12 5 17.59 6.41 19 12 13.41 17.59 19 19 17.59 13.41 12z"/></symbol>
  <symbol viewBox="0 0 24 24" id="ic_check_24px"><path d="M9 16.17L4.83 12l-1.42 1.41L9 19 21 7l-1.41-1.41z"/></symbol>
  <symbol viewBox="0 0 24 24" id="ic_fullscreen_24px"><path d="M7 14H5v5h5v-2H7v-3zm-2-4h2V7h3V5H5v5zm12 7h-3v2h5v-5h-2v3zM14 5v2h3v3h2V5h-5z"/></symbol>
  <symbol viewBox="0 0 24 24" id="ic_chevron_right_24px"><path d="M10 6L8.59 7.41 13.17 12l-4.58 4.59L10 18l6-6z"/></symbol>
  <symbol viewBox="0 0 24 24" id="ic_expand_less_24px"><path d="M12 8l-6 6 1.41 1.41L12 10.83l4.59 4.58L18 14z"/></symbol>
  <symbol viewBox="0 0 24 24" id="ic_chevron_left_24px"><path d="M15.41 7.41L14 6l-6 6 6 6 1.41-1.41L10.83 12z"/></symbol>
  <!-- content-symbol -->
  <symbol viewBox="0 0 24 24" id="ic_save_24px"><path d="M17 3H5a2 2 0 0 0-2 2v14a2 2 0 0 0 2 2h14c1.1 0 2-.9 2-2V7l-4-4zm-5 16c-1.66 0-3-1.34-3-3s1.34-3 3-3 3 1.34 3 3-1.34 3-3 3zm3-10H5V5h10v4z"/></symbol>
  <symbol viewBox="0 0 24 24" id="ic_add_24px"><path d="M19 13h-6v6h-2v-6H5v-2h6V5h2v6h6v2z"/></symbol>
  <symbol viewBox="0 0 24 24" id="ic_remove_24px"><path d="M19 13H5v-2h14v2z"/></symbol>
  <symbol viewBox="0 0 24 24" id="ic_clear_24px"><path d="M19 6.41L17.59 5 12 10.59 6.41 5 5 6.41 10.59 12 5 17.59 6.41 19 12 13.41 17.59 19 19 17.59 13.41 12z"/></symbol>
  <!-- toggle-symbol -->
  <symbol viewBox="0 0 24 24" id="ic_radio_button_unchecked_24px"><path d="M12 2C6.48 2 2 6.48 2 12s4.48 10 10 10 10-4.48 10-10S17.52 2 12 2zm0 18c-4.42 0-8-3.58-8-8s3.58-8 8-8 8 3.58 8 8-3.58 8-8 8z"/></symbol>
  <!-- image-symbol -->
  <symbol viewBox="0 0 24 24" id="ic_straighten_24px"><path d="M21 6H3c-1.1 0-2 .9-2 2v8c0 1.1.9 2 2 2h18c1.1 0 2-.9 2-2V8c0-1.1-.9-2-2-2zm0 10H3V8h2v4h2V8h2v4h2V8h2v4h2V8h2v4h2V8h2v8z"/></symbol>
  <symbol viewBox="0 0 24 24" id="ic_edit_24px"><path d="M3 17.25V21h3.75L17.81 9.94l-3.75-3.75L3 17.25zM20.71 7.04a.996.996 0 0 0 0-1.41l-2.34-2.34a.996.996 0 0 0-1.41 0l-1.83 1.83 3.75 3.75 1.83-1.83z"/></symbol>
  <symbol viewBox="0 0 24 24" id="ic_baseline_link_24px"><path d="M0 0h24v24H0z" fill="none"/><path d="M3.9 12c0-1.71 1.39-3.1 3.1-3.1h4V7H7c-2.76 0-5 2.24-5 5s2.24 5 5 5h4v-1.9H7c-1.71 0-3.1-1.39-3.1-3.1zM8 13h8v-2H8v2zm9-6h-4v1.9h4c1.71 0 3.1 1.39 3.1 3.1s-1.39 3.1-3.1 3.1h-4V17h4c2.76 0 5-2.24 5-5s-2.24-5-5-5z"/></symbol>
  <symbol viewBox="0 0 24 24" id="ic_tune_24px"><path d="M3 17v2h6v-2H3zM3 5v2h10V5H3zm10 16v-2h8v-2h-8v-2h-2v6h2zM7 9v2H3v2h4v2h2V9H7zm14 4v-2H11v2h10zm-6-4h2V7h4V5h-4V3h-2v6z"/></symbol>
</svg>
