<svg xmlns="http://www.w3.org/2000/svg" style="display: none;">
    <symbol id="fa-plus" viewBox="0 0 512 512">
      <path d="m457 210l0 55c0 8-3 14-8 20-5 5-12 8-19 8l-119 0 0 118c0 8-3 15-8 20-5 5-12 8-20 8l-54 0c-8 0-15-3-20-8-5-5-8-12-8-20l0-118-119 0c-7 0-14-3-19-8-5-6-8-12-8-20l0-55c0-7 3-14 8-19 5-5 12-8 19-8l119 0 0-119c0-8 3-14 8-19 5-6 12-8 20-8l54 0c8 0 15 2 20 8 5 5 8 11 8 19l0 119 119 0c7 0 14 3 19 8 5 5 8 12 8 19z"/>
    </symbol>
    <symbol id="fa-minus" viewBox="0 0 512 512">
      <path d="m457 210l0 55c0 8-3 14-8 20-5 5-12 8-19 8l-348 0c-7 0-14-3-19-8-5-6-8-12-8-20l0-55c0-7 3-14 8-19 5-5 12-8 19-8l348 0c7 0 14 3 19 8 5 5 8 12 8 19z"/>
    </symbol>
    <symbol id="fa-home" viewBox="0 0 512 512">
      <path d="m421 283l0 138c0 5-2 9-6 12-3 4-8 6-13 6l-109 0 0-110-74 0 0 110-109 0c-5 0-10-2-13-6-4-3-6-7-6-12l0-138c0 0 0 0 0 0 0-1 0-1 0-1l164-136 165 136c0 0 0 1 0 1z m63-19l-17 21c-2 2-4 3-6 3l-1 0c-3 0-5-1-6-2l-198-165-198 165c-2 2-4 2-7 2-2 0-4-1-6-3l-17-21c-2-2-2-4-2-7 0-3 1-5 3-6l205-171c6-5 14-8 22-8 8 0 16 3 22 8l69 58 0-56c0-2 1-5 3-6 2-2 4-3 7-3l54 0c3 0 5 1 7 3 2 1 3 4 3 6l0 117 62 52c2 1 3 3 3 6 0 3 0 5-2 7z"/>
    </symbol>
    <symbol id="fa-location-arrow" viewBox="0 0 512 512">
      <path d="m455 100l-183 365c-3 7-8 10-16 10-1 0-2 0-4 0-4-1-8-3-10-7-3-3-4-7-4-11l0-164-165 0c-4 0-8-2-11-4-3-3-6-6-7-10-1-5 0-9 2-12 1-4 4-7 8-9l366-183c2-1 5-2 8-2 5 0 9 2 13 6 3 2 4 6 5 9 1 4 0 8-2 12z"/>
    </symbol>
    <symbol id="fa-times" viewBox="0 0 512 512">
      <path d="m426 378c0 7-3 14-8 19l-39 39c-5 5-12 8-20 8-7 0-14-3-19-8l-84-84-84 84c-5 5-12 8-19 8-8 0-15-3-20-8l-39-39c-5-5-8-12-8-19 0-8 3-14 8-20l84-84-84-84c-5-5-8-12-8-19 0-8 3-14 8-20l39-38c5-6 12-8 20-8 7 0 14 2 19 8l84 84 84-84c5-6 12-8 19-8 8 0 15 2 20 8l39 38c5 6 8 12 8 20 0 7-3 14-8 19l-84 84 84 84c5 6 8 12 8 20z"/>
    </symbol>
    <symbol id="fa-share-square-o" viewBox="0 0 512 512">
      <path d="m421 283l0 74c0 22-8 42-25 58-16 16-35 24-58 24l-237 0c-23 0-42-8-59-24-16-16-24-36-24-58l0-238c0-23 8-42 24-58 17-16 36-24 59-24l72 0c3 0 5 0 7 2 2 2 3 4 3 7 0 5-3 8-8 9-15 5-27 11-38 17-2 1-3 1-4 1l-32 0c-13 0-24 5-33 14-9 9-13 19-13 32l0 238c0 12 4 23 13 32 9 9 20 13 33 13l237 0c13 0 24-4 33-13 9-9 13-20 13-32l0-62c0-3 2-6 5-8 5-2 11-6 16-10 3-3 6-4 10-3 4 2 6 5 6 9z m67-142l-109 110c-4 3-8 5-13 5-3 0-5 0-7-1-8-4-12-9-12-17l0-55-45 0c-62 0-104 12-125 37-23 26-30 71-22 135 1 5-1 8-5 10-2 1-3 1-4 1-3 0-5-2-7-4-2-3-4-6-6-9-2-3-6-10-11-19-6-10-11-20-15-29-4-9-7-20-11-32-3-13-5-25-5-35 0-10 1-18 1-26 1-8 2-17 4-26 2-9 5-18 8-25 4-8 8-16 14-23 5-8 12-15 19-22 8-6 17-12 27-17 11-6 23-10 36-14 13-4 28-7 46-9 17-2 36-3 56-3l45 0 0-55c0-8 4-13 12-17 2-1 4-1 7-1 5 0 9 2 13 5l109 110c4 4 6 8 6 13 0 5-2 9-6 13z"/>
    </symbol>
    <symbol id="fa-print" viewBox="0 0 512 512">
      <path d="m128 439l256 0 0-73-256 0z m0-183l256 0 0-110-46 0c-7 0-14-2-19-8-5-5-8-12-8-19l0-46-183 0z m329 18c0-5-2-9-5-13-4-3-8-5-13-5-5 0-9 2-13 5-4 4-5 8-5 13 0 5 1 10 5 13 4 4 8 6 13 6 5 0 9-2 13-6 3-3 5-8 5-13z m37 0l0 119c0 3-1 5-3 7-2 1-4 2-6 2l-64 0 0 46c0 8-3 14-8 19-6 6-12 8-20 8l-274 0c-8 0-14-2-20-8-5-5-8-11-8-19l0-46-64 0c-2 0-4-1-6-2-2-2-3-4-3-7l0-119c0-15 6-28 16-38 11-11 24-17 39-17l18 0 0-155c0-8 3-14 8-19 6-6 12-8 20-8l192 0c7 0 16 1 25 5 9 4 16 9 22 14l43 43c5 6 10 13 14 22 4 9 6 18 6 25l0 73 18 0c15 0 28 6 39 17 10 10 16 23 16 38z"/>
    </symbol>
    <symbol id="fa-chevron-right" viewBox="0 0 512 512">
      <path d="m389 251l-212 212c-3 3-7 5-12 5-5 0-10-2-13-5l-48-48c-3-3-5-8-5-13 0-5 2-9 5-13l152-151-152-152c-3-4-5-8-5-13 0-5 2-9 5-13l48-47c3-4 8-6 13-6 5 0 9 2 12 6l212 212c4 3 6 8 6 13 0 5-2 9-6 13z"/>
    </symbol>
    <symbol id="fa-chevron-left" viewBox="0 0 512 512">
      <path d="m408 86l-152 152 152 151c3 4 5 8 5 13 0 5-2 10-5 13l-48 48c-3 3-8 5-13 5-5 0-9-2-12-5l-212-212c-4-4-6-8-6-13 0-5 2-10 6-13l212-212c3-4 7-6 12-6 5 0 10 2 13 6l48 47c3 4 5 8 5 13 0 5-2 9-5 13z"/>
    </symbol>
    <symbol id="fa-chevron-down" viewBox="0 0 512 512">
      <path d="m481 231l-212 212c-4 3-8 5-13 5-5 0-9-2-13-5l-212-212c-3-4-5-8-5-13 0-5 2-10 5-13l48-47c3-4 7-6 12-6 5 0 10 2 13 6l152 151 152-151c3-4 8-6 13-6 5 0 9 2 12 6l48 47c3 3 5 8 5 13 0 5-2 9-5 13z"/>
    </symbol>
    <symbol id="fa-square-o" viewBox="0 0 512 512">
      <path d="m375 73l-238 0c-12 0-23 5-32 14-9 9-14 19-14 32l0 238c0 12 5 23 14 32 9 9 20 13 32 13l238 0c12 0 23-4 32-13 9-9 14-20 14-32l0-238c0-13-5-23-14-32-9-9-20-14-32-14z m82 46l0 238c0 22-8 42-24 58-16 16-35 24-58 24l-238 0c-23 0-42-8-58-24-16-16-24-36-24-58l0-238c0-23 8-42 24-58 16-16 35-24 58-24l238 0c23 0 42 8 58 24 16 16 24 35 24 58z"/>
    </symbol>
    <symbol id="fa-check-square-o" viewBox="0 0 512 512">
      <path d="m421 266l0 91c0 22-8 42-25 58-16 16-35 24-58 24l-237 0c-23 0-42-8-59-24-16-16-24-36-24-58l0-238c0-23 8-42 24-58 17-16 36-24 59-24l237 0c12 0 23 2 34 7 3 1 4 3 5 6 0 4 0 6-3 9l-14 14c-2 1-4 2-6 2-1 0-2 0-3 0-4-1-9-2-13-2l-237 0c-13 0-24 5-33 14-9 9-13 19-13 32l0 238c0 12 4 23 13 32 9 9 20 13 33 13l237 0c13 0 24-4 33-13 9-9 13-20 13-32l0-73c0-2 1-5 3-6l18-19c2-1 4-2 6-2 2 0 3 0 4 0 4 2 6 5 6 9z m66-140l-233 233c-5 4-10 6-16 6-7 0-12-2-17-6l-122-123c-5-5-7-10-7-17 0-6 2-11 7-16l31-31c5-5 10-7 16-7 7 0 12 2 17 7l75 75 185-185c4-5 10-7 16-7 6 0 12 2 16 7l32 31c4 5 6 10 6 17 0 6-2 11-6 16z"/>
    </symbol>
    <symbol id="fa-check" viewBox="0 0 512 512">
      <path d="m477 162c0 7-2 14-8 19l-206 207-39 39c-6 5-12 8-20 8-7 0-14-3-19-8l-142-142c-6-6-8-12-8-20 0-7 2-14 8-19l38-39c6-5 12-8 20-8 7 0 14 3 19 8l84 84 188-188c5-5 12-8 19-8 8 0 14 3 20 8l38 39c6 6 8 12 8 20z"/>
    </symbol>
    <symbol id="fa-bars" viewBox="0 0 512 512">
      <path d="m475 384l0 37c0 5-1 9-5 12-4 4-8 6-13 6l-402 0c-5 0-9-2-13-6-4-3-5-7-5-12l0-37c0-5 1-9 5-13 4-3 8-5 13-5l402 0c5 0 9 2 13 5 4 4 5 8 5 13z m0-146l0 36c0 5-1 10-5 13-4 4-8 6-13 6l-402 0c-5 0-9-2-13-6-4-3-5-8-5-13l0-36c0-5 1-10 5-13 4-4 8-6 13-6l402 0c5 0 9 2 13 6 4 3 5 8 5 13z m0-147l0 37c0 5-1 9-5 13-4 3-8 5-13 5l-402 0c-5 0-9-2-13-5-4-4-5-8-5-13l0-37c0-5 1-9 5-12 4-4 8-6 13-6l402 0c5 0 9 2 13 6 4 3 5 7 5 12z"/>
    </symbol>
    <symbol id="fa-pencil" viewBox="0 0 512 512">
      <path d="m140 439l26-26-67-67-26 26 0 30 37 0 0 37z m150-265c0-4-2-7-7-7-1 0-3 1-4 2l-155 155c-2 2-2 3-2 5 0 4 2 6 6 6 2 0 4 0 5-2l155-154c1-2 2-3 2-5z m-16-55l119 119-238 237-118 0 0-118z m195 27c0 10-3 19-10 26l-48 47-118-118 47-48c7-7 15-10 26-10 10 0 18 3 26 10l67 67c7 8 10 16 10 26z"/>
    </symbol>
    <symbol id="fa-angle-double-up" viewBox="0 0 512 512">
      <path d="m399 375c0 2-1 5-3 6l-15 15c-1 2-4 3-6 3-3 0-5-1-7-3l-112-113-112 113c-2 2-4 3-7 3-2 0-5-1-6-3l-15-15c-2-1-3-4-3-6 0-3 1-5 3-7l133-133c2-2 5-3 7-3 2 0 5 1 7 3l133 133c2 2 3 4 3 7z m0-110c0 3-1 5-3 7l-15 14c-1 2-4 3-6 3-3 0-5-1-7-3l-112-112-112 112c-2 2-4 3-7 3-2 0-5-1-6-3l-15-14c-2-2-3-4-3-7 0-2 1-5 3-6l133-134c2-1 5-2 7-2 2 0 5 1 7 2l133 134c2 1 3 4 3 6z"/>
    </symbol>
    <symbol id="fa-angle-double-down" viewBox="0 0 512 512">
      <path d="m399 247c0 2-1 5-3 6l-133 134c-2 1-5 2-7 2-2 0-5-1-7-2l-133-134c-2-1-3-4-3-6 0-3 1-5 3-7l15-14c1-2 4-3 6-3 3 0 5 1 7 3l112 112 112-112c2-2 4-3 7-3 2 0 5 1 6 3l15 14c2 2 3 4 3 7z m0-110c0 3-1 5-3 7l-133 133c-2 2-5 3-7 3-2 0-5-1-7-3l-133-133c-2-2-3-4-3-7 0-2 1-5 3-6l15-15c1-2 4-3 6-3 3 0 5 1 7 3l112 113 112-113c2-2 4-3 7-3 2 0 5 1 6 3l15 15c2 1 3 4 3 6z"/>
    </symbol>
    <symbol id="fa-angle-double-right" viewBox="0 0 512 512">
      <path d="m280 274c0 3-1 5-3 7l-133 133c-2 2-4 3-7 3-2 0-5-1-6-3l-15-14c-2-2-3-4-3-7 0-2 1-5 3-6l113-113-113-112c-2-2-3-4-3-7 0-2 1-4 3-6l15-14c1-2 4-3 6-3 3 0 5 1 7 3l133 133c2 2 3 4 3 6z m109 0c0 3-1 5-2 7l-134 133c-1 2-4 3-6 3-3 0-5-1-7-3l-14-14c-2-2-3-4-3-7 0-2 1-5 3-6l112-113-112-112c-2-2-3-4-3-7 0-2 1-4 3-6l14-14c2-2 4-3 7-3 2 0 5 1 6 3l134 133c1 2 2 4 2 6z"/>
    </symbol>
    <symbol id="fa-trash-o" viewBox="0 0 512 512">
      <path d="m201 210l0 165c0 3-1 5-2 6-2 2-4 3-7 3l-18 0c-3 0-5-1-7-3-2-1-2-3-2-6l0-165c0-2 0-5 2-6 2-2 4-3 7-3l18 0c3 0 5 1 7 3 1 1 2 4 2 6z m73 0l0 165c0 3-1 5-2 6-2 2-4 3-7 3l-18 0c-3 0-5-1-7-3-1-1-2-3-2-6l0-165c0-2 1-5 2-6 2-2 4-3 7-3l18 0c3 0 5 1 7 3 1 1 2 4 2 6z m73 0l0 165c0 3 0 5-2 6-2 2-4 3-7 3l-18 0c-3 0-5-1-7-3-1-1-2-3-2-6l0-165c0-2 1-5 2-6 2-2 4-3 7-3l18 0c3 0 5 1 7 3 2 1 2 4 2 6z m37 207l0-271-256 0 0 271c0 4 1 8 2 12 1 3 3 6 4 7 2 2 3 3 3 3l238 0c0 0 1-1 3-3 1-1 3-4 4-7 1-4 2-8 2-12z m-192-307l128 0-14-34c-1-1-3-2-5-3l-90 0c-2 1-4 2-5 3z m265 9l0 18c0 3-1 5-2 7-2 1-4 2-7 2l-27 0 0 271c0 16-5 30-14 41-9 12-20 17-32 17l-238 0c-12 0-23-5-32-16-9-11-14-25-14-41l0-272-27 0c-3 0-5-1-7-2-1-2-2-4-2-7l0-18c0-3 1-5 2-7 2-1 4-2 7-2l88 0 20-48c3-7 8-13 16-18 7-5 15-7 22-7l92 0c7 0 15 2 22 7 8 5 13 11 16 18l20 48 88 0c3 0 5 1 7 2 1 2 2 4 2 7z"/>
    </symbol>
    <symbol id="fa-font" viewBox="0 0 512 512">
      <path d="m225 160l-48 128c6 0 19 0 39 1 20 0 35 0 46 0 3 0 9 0 16 0-17-48-34-91-53-129z m-207 315l1-22c4-1 10-3 16-4 6-1 12-2 16-3 5-1 9-2 14-4 5-2 9-4 13-8 4-4 7-9 9-15l68-176 80-206 36 0c2 2 3 4 3 6l59 137c6 15 16 39 30 73 14 34 25 61 33 79 3 6 8 20 16 41 8 21 15 37 21 48 4 9 7 14 10 16 3 3 12 6 25 9 13 3 21 5 24 6 1 7 2 12 2 16 0 1 0 2 0 4-1 1-1 3-1 3-12 0-30 0-54-2-24-1-42-2-54-2-15 0-35 1-62 2-26 1-43 2-51 2 0-8 1-15 1-22l38-8c0 0 1 0 3-1 3 0 4-1 5-1 1 0 2 0 4-1 2-1 3-1 4-2 1-1 2-1 3-2 2-1 3-2 3-3 0-2 1-3 1-4 0-3-3-13-9-28-6-15-13-32-21-51-8-18-12-28-12-28l-128-1c-5 11-13 30-22 56-10 26-15 42-15 46 0 5 2 8 4 11 3 3 7 5 13 7 5 2 10 3 14 4 3 1 9 2 16 2 7 1 11 2 12 2 0 3 0 9 0 16 0 2 0 4-1 8-11 0-27-1-49-3-23-2-39-3-50-3-2 0-4 1-8 1-3 1-5 1-6 1-15 3-33 4-54 4z"/>
    </symbol>
    <symbol id="fa-info" viewBox="0 0 512 512">
      <path d="m347 384l0 37c0 5-1 9-5 12-4 4-8 6-13 6l-146 0c-5 0-9-2-13-6-4-3-5-7-5-12l0-37c0-5 1-9 5-13 4-3 8-5 13-5l18 0 0-110-18 0c-5 0-9-2-13-5-4-4-5-8-5-13l0-37c0-5 1-9 5-13 4-3 8-5 13-5l110 0c5 0 9 2 12 5 4 4 6 8 6 13l0 165 18 0c5 0 9 2 13 5 4 4 5 8 5 13z m-36-329l0 55c0 5-2 9-6 13-3 3-7 5-12 5l-74 0c-5 0-9-2-12-5-4-4-6-8-6-13l0-55c0-5 2-9 6-13 3-4 7-5 12-5l74 0c5 0 9 1 12 5 4 4 6 8 6 13z"/>
    </symbol>
    <symbol id="fa-pencil" viewBox="0 0 512 512">
      <path d="m140 439l26-26-67-67-26 26 0 30 37 0 0 37z m150-265c0-4-2-7-7-7-1 0-3 1-4 2l-155 155c-2 2-2 3-2 5 0 4 2 6 6 6 2 0 4 0 5-2l155-154c1-2 2-3 2-5z m-16-55l119 119-238 237-118 0 0-118z m195 27c0 10-3 19-10 26l-48 47-118-118 47-48c7-7 15-10 26-10 10 0 18 3 26 10l67 67c7 8 10 16 10 26z"/>
    </symbol>
    <symbol id="fa-trash" viewBox="0 0 512 512">
      <path d="m201 393l0-201c0-3-1-5-2-7-2-1-4-2-7-2l-18 0c-3 0-5 1-7 2-2 2-2 4-2 7l0 201c0 3 0 5 2 7 2 1 4 2 7 2l18 0c3 0 5-1 7-2 1-2 2-4 2-7z m73 0l0-201c0-3-1-5-2-7-2-1-4-2-7-2l-18 0c-3 0-5 1-7 2-1 2-2 4-2 7l0 201c0 3 1 5 2 7 2 1 4 2 7 2l18 0c3 0 5-1 7-2 1-2 2-4 2-7z m73 0l0-201c0-3 0-5-2-7-2-1-4-2-7-2l-18 0c-3 0-5 1-7 2-1 2-2 4-2 7l0 201c0 3 1 5 2 7 2 1 4 2 7 2l18 0c3 0 5-1 7-2 2-2 2-4 2-7z m-155-283l128 0-14-34c-1-1-3-2-5-3l-90 0c-2 1-4 2-5 3z m265 9l0 18c0 3-1 5-2 7-2 1-4 2-7 2l-27 0 0 271c0 16-5 30-14 41-9 12-20 17-32 17l-238 0c-12 0-23-5-32-16-9-11-14-25-14-41l0-272-27 0c-3 0-5-1-7-2-1-2-2-4-2-7l0-18c0-3 1-5 2-7 2-1 4-2 7-2l88 0 20-48c3-7 8-13 16-18 7-5 15-7 22-7l92 0c7 0 15 2 22 7 8 5 13 11 16 18l20 48 88 0c3 0 5 1 7 2 1 2 2 4 2 7z"/>
    </symbol>
    <symbol id="fa-font" viewBox="0 0 512 512">
      <path d="m225 160l-48 128c6 0 19 0 39 1 20 0 35 0 46 0 3 0 9 0 16 0-17-48-34-91-53-129z m-207 315l1-22c4-1 10-3 16-4 6-1 12-2 16-3 5-1 9-2 14-4 5-2 9-4 13-8 4-4 7-9 9-15l68-176 80-206 36 0c2 2 3 4 3 6l59 137c6 15 16 39 30 73 14 34 25 61 33 79 3 6 8 20 16 41 8 21 15 37 21 48 4 9 7 14 10 16 3 3 12 6 25 9 13 3 21 5 24 6 1 7 2 12 2 16 0 1 0 2 0 4-1 1-1 3-1 3-12 0-30 0-54-2-24-1-42-2-54-2-15 0-35 1-62 2-26 1-43 2-51 2 0-8 1-15 1-22l38-8c0 0 1 0 3-1 3 0 4-1 5-1 1 0 2 0 4-1 2-1 3-1 4-2 1-1 2-1 3-2 2-1 3-2 3-3 0-2 1-3 1-4 0-3-3-13-9-28-6-15-13-32-21-51-8-18-12-28-12-28l-128-1c-5 11-13 30-22 56-10 26-15 42-15 46 0 5 2 8 4 11 3 3 7 5 13 7 5 2 10 3 14 4 3 1 9 2 16 2 7 1 11 2 12 2 0 3 0 9 0 16 0 2 0 4-1 8-11 0-27-1-49-3-23-2-39-3-50-3-2 0-4 1-8 1-3 1-5 1-6 1-15 3-33 4-54 4z"/>
    </symbol>
    <symbol id="fa-expand" viewBox="0 0 512 512">
      <path d="m252 302c0 2-1 4-3 6l-94 95 41 41c3 4 5 8 5 13 0 5-2 9-5 13-4 4-8 5-13 5l-128 0c-5 0-9-1-13-5-4-4-5-8-5-13l0-128c0-5 1-9 5-13 4-3 8-5 13-5 5 0 9 2 13 5l41 41 95-94c2-2 4-3 6-3 3 0 5 1 7 3l32 32c2 2 3 4 3 7z m223-247l0 128c0 5-1 9-5 13-4 3-8 5-13 5-5 0-9-2-13-5l-41-41-95 94c-2 2-4 3-6 3-3 0-5-1-7-3l-32-32c-2-2-3-4-3-7 0-2 1-4 3-6l94-95-41-41c-3-4-5-8-5-13 0-5 2-9 5-13 4-4 8-5 13-5l128 0c5 0 9 1 13 5 4 4 5 8 5 13z"/>
    </symbol>
		<symbol id="fa-info-circle" viewBox="0 0 512 512">
      <path d="m329 393l0-46c0-2-1-4-2-6-2-2-4-3-7-3l-27 0 0-146c0-3-1-5-3-7-2-1-4-2-7-2l-91 0c-3 0-5 1-7 2-1 2-2 4-2 7l0 46c0 2 1 5 2 6 2 2 4 3 7 3l27 0 0 91-27 0c-3 0-5 1-7 3-1 2-2 4-2 6l0 46c0 3 1 5 2 7 2 1 4 2 7 2l128 0c3 0 5-1 7-2 1-2 2-4 2-7z m-36-256l0-46c0-2-1-4-3-6-2-2-4-3-7-3l-54 0c-3 0-5 1-7 3-2 2-3 4-3 6l0 46c0 3 1 5 3 7 2 1 4 2 7 2l54 0c3 0 5-1 7-2 2-2 3-4 3-7z m182 119c0 40-9 77-29 110-20 34-46 60-80 80-33 20-70 29-110 29-40 0-77-9-110-29-34-20-60-46-80-80-20-33-29-70-29-110 0-40 9-77 29-110 20-34 46-60 80-80 33-20 70-29 110-29 40 0 77 9 110 29 34 20 60 46 80 80 20 33 29 70 29 110z"/>
    </symbol>
    <symbol id="fa-download" viewBox="0 0 512 512">
      <path d="m384 384c0-5-2-9-5-13-4-3-8-5-13-5-5 0-10 2-13 5-4 4-6 8-6 13 0 5 2 9 6 13 3 3 8 5 13 5 5 0 9-2 13-5 3-4 5-8 5-13z m73 0c0-5-2-9-5-13-4-3-8-5-13-5-5 0-9 2-13 5-4 4-5 8-5 13 0 5 1 9 5 13 4 3 8 5 13 5 5 0 9-2 13-5 3-4 5-8 5-13z m37-64l0 91c0 8-3 15-8 20-6 5-12 8-20 8l-420 0c-8 0-14-3-20-8-5-5-8-12-8-20l0-91c0-8 3-14 8-19 6-6 12-8 20-8l133 0 38 38c11 11 24 16 39 16 15 0 28-5 39-16l39-38 132 0c8 0 14 2 20 8 5 5 8 11 8 19z m-93-163c3 8 2 15-4 20l-128 128c-4 4-8 6-13 6-5 0-9-2-13-6l-128-128c-6-5-7-12-4-20 3-7 9-11 17-11l73 0 0-128c0-5 2-9 6-13 3-3 7-5 12-5l74 0c5 0 9 2 12 5 4 4 6 8 6 13l0 128 73 0c8 0 14 4 17 11z"/>
    </symbol>
    <symbol id="fa-floppy-o" viewBox="0 0 512 512">
      <path d="m146 439l220 0 0-110-220 0z m256 0l37 0 0-256c0-3-1-6-3-11-2-5-4-8-6-10l-80-80c-2-2-5-4-10-6-4-2-8-3-11-3l0 119c0 8-3 14-8 19-5 6-12 8-19 8l-165 0c-7 0-14-2-19-8-6-5-8-11-8-19l0-119-37 0 0 366 37 0 0-119c0-8 2-14 8-19 5-6 12-8 19-8l238 0c7 0 14 2 19 8 6 5 8 11 8 19z m-109-265l0-92c0-2-1-4-3-6-2-2-4-3-7-3l-54 0c-3 0-5 1-7 3-2 2-3 4-3 6l0 92c0 2 1 4 3 6 2 2 4 3 7 3l54 0c3 0 5-1 7-3 2-2 3-4 3-6z m182 9l0 265c0 8-2 14-8 19-5 6-11 8-19 8l-384 0c-8 0-14-2-19-8-6-5-8-11-8-19l0-384c0-8 2-14 8-19 5-6 11-8 19-8l265 0c8 0 16 1 25 5 9 4 17 9 22 14l80 80c5 5 10 13 14 22 4 9 5 17 5 25z"/>
    </symbol>
    <symbol id="fa-external-link" viewBox="0 0 512 512">
      <path d="m402 265l0 92c0 22-8 42-24 58-16 16-35 24-58 24l-238 0c-22 0-42-8-58-24-16-16-24-36-24-58l0-238c0-23 8-42 24-58 16-16 36-24 58-24l201 0c3 0 5 0 7 2 2 2 3 4 3 7l0 18c0 3-1 5-3 7-2 1-4 2-7 2l-201 0c-12 0-23 5-32 14-9 9-13 19-13 32l0 238c0 12 4 23 13 32 9 9 20 13 32 13l238 0c13 0 23-4 32-13 9-9 14-20 14-32l0-92c0-3 1-5 2-6 2-2 4-3 7-3l18 0c3 0 5 1 7 3 1 1 2 3 2 6z m110-247l0 147c0 5-2 9-5 12-4 4-8 6-13 6-5 0-10-2-13-6l-50-50-187 186c-2 2-4 3-6 3-3 0-5-1-7-3l-32-32c-2-2-3-4-3-7 0-2 1-4 3-6l186-187-50-50c-4-3-6-8-6-13 0-5 2-9 6-13 3-3 7-5 12-5l147 0c5 0 9 2 13 5 3 4 5 8 5 13z"/>
    </symbol>
    <symbol id="fa-refresh" viewBox="0 0 512 512">
      <path d="m468 302c0 1 0 1 0 2-12 51-38 92-77 124-38 32-84 47-136 47-28 0-55-5-81-15-26-11-49-26-69-45l-37 37c-4 3-8 5-13 5-5 0-9-2-13-5-4-4-5-8-5-13l0-128c0-5 1-9 5-13 4-4 8-5 13-5l128 0c5 0 9 1 13 5 3 4 5 8 5 13 0 5-2 9-5 13l-39 39c13 12 28 22 46 29 17 7 35 10 53 10 26 0 49-6 71-18 23-13 40-30 54-51 2-4 7-15 15-34 1-4 4-6 8-6l55 0c3 0 5 0 7 2 1 2 2 4 2 7z m7-229l0 128c0 5-1 9-5 13-4 4-8 5-13 5l-128 0c-5 0-9-1-13-5-3-4-5-8-5-13 0-5 2-9 5-13l40-39c-28-26-62-39-100-39-26 0-49 6-71 18-23 13-40 30-54 51-2 4-7 15-15 34-1 4-4 6-8 6l-57 0c-3 0-5 0-7-2-1-2-2-4-2-7l0-2c12-51 38-92 77-124 39-32 85-47 137-47 28 0 55 5 81 15 26 11 50 26 70 45l37-37c4-3 8-5 13-5 5 0 9 2 13 5 4 4 5 8 5 13z"/>
    </symbol>
    <symbol id="fa-map-marker" viewBox="0 0 512 512">
      <path d="m329 183c0-20-7-38-21-52-15-14-32-21-52-21-20 0-37 7-52 21-14 14-21 32-21 52 0 20 7 37 21 52 15 14 32 21 52 21 20 0 37-7 52-21 14-15 21-32 21-52z m73 0c0 21-3 38-9 51l-104 221c-3 6-8 11-14 15-6 4-12 5-19 5-7 0-13-1-19-5-6-4-11-9-14-15l-104-221c-6-13-9-30-9-51 0-41 14-75 43-104 28-28 63-42 103-42 40 0 75 14 103 42 29 29 43 63 43 104z"/>
    </symbol>
</svg>
