<svg xmlns="http://www.w3.org/2000/svg" style="display: none;">
  <!-- action-symbol -->
  <symbol viewBox="0 0 24 24" id="ic_delete_24px"><path d="M6 19c0 1.1.9 2 2 2h8c1.1 0 2-.9 2-2V7H6v12zM19 4h-3.5l-1-1h-5l-1 1H5v2h14V4z"/></symbol>
  <symbol viewBox="0 0 24 24" id="ic_remove_circle_outline_24px"><path d="M7 11v2h10v-2H7zm5-9C6.48 2 2 6.48 2 12s4.48 10 10 10 10-4.48 10-10S17.52 2 12 2zm0 18c-4.41 0-8-3.59-8-8s3.59-8 8-8 8 3.59 8 8-3.59 8-8 8z"/></symbol>
  <symbol viewBox="0 0 24 24" id="ic_home_24px"><path d="M10 20v-6h4v6h5v-8h3L12 3 2 12h3v8z"/></symbol>
  <symbol viewBox="0 0 24 24" id="ic_check_circle_24px"><path fill="none" d="M0 0h24v24H0V0z"/><path d="M12 2C6.48 2 2 6.48 2 12s4.48 10 10 10 10-4.48 10-10S17.52 2 12 2zm-2 15l-5-5 1.41-1.41L10 14.17l7.59-7.59L19 8l-9 9z"/></symbol>
  <symbol viewBox="0 0 24 24" id="ic_launch_24px"><path d="M19 19H5V5h7V3H5a2 2 0 0 0-2 2v14a2 2 0 0 0 2 2h14c1.1 0 2-.9 2-2v-7h-2v7zM14 3v2h3.59l-9.83 9.83 1.41 1.41L19 6.41V10h2V3h-7z"/></symbol>
  <symbol viewBox="0 0 24 24" id="ic_help_outline_24px"><path d="M11 18h2v-2h-2v2zm1-16C6.48 2 2 6.48 2 12s4.48 10 10 10 10-4.48 10-10S17.52 2 12 2zm0 18c-4.41 0-8-3.59-8-8s3.59-8 8-8 8 3.59 8 8-3.59 8-8 8zm0-14a4 4 0 0 0-4 4h2c0-1.1.9-2 2-2s2 .9 2 2c0 2-3 1.75-3 5h2c0-2.25 3-2.5 3-5a4 4 0 0 0-4-4z"/></symbol>
  <symbol viewBox="0 0 24 24" id="ic_screen_share_outline_24px"> <path fill="none" d="M0 0h24v24H0V0z"/><path d="M20 18c1.1 0 1.99-.9 1.99-2L22 6c0-1.11-.9-2-2-2H4c-1.11 0-2 .89-2 2v10c0 1.1.89 2 2 2H0v2h24v-2h-4zM4 16V6h16v10.01L4 16zm9-6.87c-3.89.54-5.44 3.2-6 5.87 1.39-1.87 3.22-2.72 6-2.72v2.19l4-3.74L13 7v2.13z"/></symbol>
  <symbol viewBox="0 0 24 24" id="ic_print_24px"><path d="M19 8H5c-1.66 0-3 1.34-3 3v6h4v4h12v-4h4v-6c0-1.66-1.34-3-3-3zm-3 11H8v-5h8v5zm3-7c-.55 0-1-.45-1-1s.45-1 1-1 1 .45 1 1-.45 1-1 1zm-1-9H6v4h12V3z"/></symbol>
  <!-- editor-symbol -->
  <symbol viewBox="0 0 24 24" id="ic_title_24px"><path d="M5 4v3h5.5v12h3V7H19V4z"/></symbol>
  <symbol viewBox="0 0 24 24" id="ic_mode_edit_24px"><path d="M3 17.25V21h3.75L17.81 9.94l-3.75-3.75L3 17.25zM20.71 7.04a.996.996 0 0 0 0-1.41l-2.34-2.34a.996.996 0 0 0-1.41 0l-1.83 1.83 3.75 3.75 1.83-1.83z"/></symbol>
  <!-- maps-symbol -->
  <symbol viewBox="0 0 24 24" id="ic_layers_24px"><path d="M11.99 18.54l-7.37-5.73L3 14.07l9 7 9-7-1.63-1.27-7.38 5.74zM12 16l7.36-5.73L21 9l-9-7-9 7 1.63 1.27L12 16z"/></symbol>
  <symbol viewBox="0 0 24 24" id="ic_near_me_24px"><path d="M21 3L3 10.53v.98l6.84 2.65L12.48 21h.98L21 3z"/></symbol>
  <!-- navigation-symbol -->
  <symbol viewBox="0 0 24 24" id="ic_close_24px"><path d="M19 6.41L17.59 5 12 10.59 6.41 5 5 6.41 10.59 12 5 17.59 6.41 19 12 13.41 17.59 19 19 17.59 13.41 12z"/></symbol>
  <symbol viewBox="0 0 24 24" id="ic_check_24px"><path d="M9 16.17L4.83 12l-1.42 1.41L9 19 21 7l-1.41-1.41z"/></symbol>
  <symbol viewBox="0 0 24 24" id="ic_fullscreen_24px"><path d="M7 14H5v5h5v-2H7v-3zm-2-4h2V7h3V5H5v5zm12 7h-3v2h5v-5h-2v3zM14 5v2h3v3h2V5h-5z"/></symbol>
  <!-- content-symbol -->
  <symbol viewBox="0 0 24 24" id="ic_save_24px"><path d="M17 3H5a2 2 0 0 0-2 2v14a2 2 0 0 0 2 2h14c1.1 0 2-.9 2-2V7l-4-4zm-5 16c-1.66 0-3-1.34-3-3s1.34-3 3-3 3 1.34 3 3-1.34 3-3 3zm3-10H5V5h10v4z"/></symbol>
  <symbol viewBox="0 0 24 24" id="ic_add_24px"><path d="M19 13h-6v6h-2v-6H5v-2h6V5h2v6h6v2z"/></symbol>
  <symbol viewBox="0 0 24 24" id="ic_remove_24px"><path d="M19 13H5v-2h14v2z"/></symbol>
  <symbol viewBox="0 0 24 24" id="ic_clear_24px"><path d="M19 6.41L17.59 5 12 10.59 6.41 5 5 6.41 10.59 12 5 17.59 6.41 19 12 13.41 17.59 19 19 17.59 13.41 12z"/></symbol>
  <!-- toggle-symbol -->
  <symbol viewBox="0 0 24 24" id="ic_radio_button_unchecked_24px"><path d="M12 2C6.48 2 2 6.48 2 12s4.48 10 10 10 10-4.48 10-10S17.52 2 12 2zm0 18c-4.42 0-8-3.58-8-8s3.58-8 8-8 8 3.58 8 8-3.58 8-8 8z"/></symbol>
</svg>
