<svg xmlns="http://www.w3.org/2000/svg" style="display: none;">
  <symbol id="minicons-square-vector" viewBox="0 0 512 512">
    <path d="M 93.379909,63.979157 418.7168,63.99935 c -3.66219,10.93279 -3.51639,21.601137 0.0118,32.034598 L 93.283199,96.00065 c 3.527888,-10.427659 3.659578,-21.094486 0.09671,-32.021493 z m 0.03374,352.099263 325.306149,-0.0876 c -3.76104,10.72833 -3.49087,21.41752 0.0201,32.07524 l -325.470998,-0.025 c 3.514521,-10.21243 3.831515,-20.83239 0.144719,-31.96263 z M 32.082177,125.27889 c 10.459409,3.52044 21.100501,3.72519 31.959331,-0.0438 l -0.02779,261.38257 c -10.742946,-3.48786 -21.417272,-3.5104 -32.018977,0.13438 z m 415.869153,-0.0464 c 11.45075,4.00147 22.02759,3.38369 32.08217,0.005 l -0.0409,261.50959 c -10.28518,-3.48912 -20.90356,-3.89612 -31.98723,7.5e-4 z M 48,32 C 22,32 0,53 0,80 0,107 22,128 48,128 74,128 96,107 96,80 96,53 75,32 48,32 m 416,96 c 26,0 48,-21 48,-48 0,-27 -22,-48 -48,-48 -26,0 -48,21 -48,48 0,27 22,48 48,48 m 0,256 c -26,0 -48,21 -48,48 0,27 22,48 48,48 26,0 48,-21 48,-48 0,-27 -22,-48 -48,-48 m -416,0 c -26,0 -48,21 -48,48 0,27 22,48 48,48 26,0 48,-21 48,-48 0,-27 -21,-48 -48,-48"/>
  </symbol>
  <symbol id="minicons-line-vector" viewBox="0 0 512 512">
    <path d="m 197.10724,189.0702 134.8205,152.8873 c -13.59341,5.61187 -21.68524,13.56133 -26.47342,23.49558 L 170.76154,216.80596 c 13.04776,-4.55937 24.93294,-20.73236 26.3457,-27.73576 z m -74.68326,21.38163 c 9.53121,7.99361 20.72676,9.6562 30.96362,10.16996 L 80.426162,396.25928 c -8.062327,-7.20424 -17.728406,-11.45759 -29.32113,-12.16591 z m 309.51059,-94.74391 c 9.07252,7.73357 19.01283,11.89954 29.88303,12.24265 l -77.62667,227.18022 c -6.61817,-7.00085 -14.70777,-13.08703 -28.65366,-15.53281 z m -279.95759,8.9345 c -26,0 -48,21 -48,48.00001 0,27 22,48 48,48 26,0 48,-21 48,-48 0,-27.00001 -21,-48.00001 -48,-48.00001 M 464,128 c 26,0 48,-21 48,-48 0,-27 -22,-48 -48,-48 -26,0 -48,21 -48,48 0,27 22,48 48,48 M 348.34609,339.05678 c -26,0 -48,21 -48,48 0,27 22,48 48,48 26,0 48,-21 48,-48 0,-27 -22,-48 -48,-48 M 48,384 c -26,0 -48,21 -48,48 0,27 22,48 48,48 26,0 48,-21 48,-48 0,-27 -21,-48 -48,-48"/>
  </symbol>
</svg>
