<svg xmlns="http://www.w3.org/2000/svg" style="display: none;">
  
    <symbol id="steady-measure" viewBox="0 0 512 512">
      <path d="m64 299l21 0l0-22l-21 0z m21-214l-21 0l0 22l21 0z m0 384l-21 0l0 22l-43 0l0 21l107 0l0-21l-43 0z m-21-298l21 0l0-22l-21 0z m0 64l21 0l0-22l-21 0z m128-235l0 512l277 0l0-512z m171 469l-128 0l0-426l128 0z m64 0l-43 0l0-42l43 0z m0-64l-43 0l0-42l43 0z m0-64l-43 0l0-42l43 0z m0-64l-43 0l0-42l43 0z m0-64l-43 0l0-42l43 0z m0-64l-43 0l0-42l43 0z m0-64l-43 0l0-42l43 0z m-406-64l43 0l0 22l21 0l0-22l43 0l0-21l-107 0z m43 406l21 0l0-22l-21 0z m0-64l21 0l0-22l-21 0z"/>
    </symbol>
  
</svg>
